<svg width="40" height="36" viewBox="0 0 40 36" fill="none" xmlns="http://www.w3.org/2000/svg">
<path d="M20 35.4892C19.5445 35.4888 19.1076 35.3075 18.7857 34.9852L3.2747 19.4287C1.1757 17.2872 0 14.4082 0 11.4098C0 8.41126 1.1757 5.53228 3.2747 3.39093C5.40154 1.26434 8.28601 0.0696711 11.2937 0.0696711C14.3013 0.0696711 17.1858 1.26434 19.3126 3.39093L20 3.98661L20.6415 3.34511C21.6931 2.28204 22.9457 1.4388 24.3263 0.864543C25.707 0.290258 27.1882 -0.00357559 28.6834 0.000113072C30.1772 -0.00657692 31.6573 0.283659 33.0379 0.853958C34.4183 1.42428 35.6718 2.26325 36.7253 3.3222C38.8242 5.46354 40 8.34253 40 11.341C40 14.3395 38.8242 17.2184 36.7253 19.3599L21.2143 34.9164C21.0608 35.0885 20.874 35.2278 20.6653 35.3263C20.4568 35.4246 20.2305 35.4801 20 35.4892ZM11.3166 3.41384C10.276 3.40626 9.24426 3.60483 8.28081 3.99805C7.31739 4.39129 6.44137 4.97139 5.7033 5.70493C4.21606 7.19907 3.38112 9.22142 3.38112 11.3296C3.38112 13.4377 4.21606 15.46 5.7033 16.9543L20 31.3423L34.2738 17.0001C35.0129 16.2617 35.5994 15.3849 35.9994 14.4197C36.3995 13.4546 36.6055 12.4201 36.6055 11.3754C36.6055 10.3306 36.3995 9.29613 35.9994 8.331C35.5994 7.36591 35.0129 6.4891 34.2738 5.75075C33.5415 5.01584 32.6697 4.43461 31.7098 4.04116C30.7498 3.64774 29.7208 3.45004 28.6834 3.45966C27.6428 3.45208 26.6111 3.65065 25.6476 4.04387C24.6842 4.43711 23.8081 5.01722 23.0701 5.75075L21.2143 7.60654C20.8864 7.91755 20.4518 8.09094 20 8.09094C19.5482 8.09094 19.1135 7.91755 18.7857 7.60654L16.9299 5.75075C16.1955 5.00894 15.3213 4.42039 14.3577 4.01922C13.3941 3.61805 12.3604 3.41226 11.3166 3.41384Z" fill="black"/>
</svg>
